<svg xmlns="http://www.w3.org/2000/svg" width="1200" height="auto" viewBox="0 0 1200 630" role="img" aria-labelledby="title desc">
  <title id="title">Accounts guide thumbnail</title>
  <desc id="desc">Illustration for managing bank, savings, and asset accounts.</desc>
  <defs>
    <linearGradient id="bg" x1="0" x2="1" y1="0" y2="1">
      <stop offset="0" stop-color="#0A4F7F" />
      <stop offset="1" stop-color="#2E7FBD" />
    </linearGradient>
  </defs>
  <rect width="1200" height="630" fill="url(#bg)" />
  <rect x="90" y="80" width="1020" height="470" rx="28" fill="#ffffff" opacity="0.1" />
  <rect x="160" y="150" width="340" height="250" rx="18" fill="#ffffff" opacity="0.95" />
  <rect x="530" y="150" width="340" height="250" rx="18" fill="#ffffff" opacity="0.95" />
  <rect x="200" y="195" width="260" height="28" rx="14" fill="#0A4F7F" />
  <rect x="200" y="240" width="200" height="14" rx="7" fill="#94a3b8" />
  <rect x="200" y="265" width="220" height="14" rx="7" fill="#94a3b8" />
  <rect x="200" y="300" width="120" height="38" rx="10" fill="#33B690" />
  <rect x="570" y="195" width="260" height="28" rx="14" fill="#2E7FBD" />
  <rect x="570" y="240" width="180" height="14" rx="7" fill="#94a3b8" />
  <rect x="570" y="265" width="210" height="14" rx="7" fill="#94a3b8" />
  <rect x="570" y="300" width="120" height="38" rx="10" fill="#0A4F7F" />
  <rect x="430" y="430" width="340" height="90" rx="16" fill="#0f2740" opacity="0.85" />
  <rect x="465" y="458" width="120" height="16" rx="8" fill="#33B690" />
  <rect x="600" y="458" width="130" height="16" rx="8" fill="#cbd5e1" />
  <rect x="465" y="486" width="270" height="12" rx="6" fill="#64748b" />
  <text x="160" y="575" fill="#ffffff" font-size="44" font-family="Arial, sans-serif" font-weight="700">Manage your accounts</text>
</svg>
