<svg xmlns="http://www.w3.org/2000/svg" width="1200" height="auto" viewBox="0 0 1200 630" role="img" aria-labelledby="title desc">
  <title id="title">Budgeting guide thumbnail</title>
  <desc id="desc">Illustration for monthly budgets and expense tracking.</desc>
  <defs>
    <linearGradient id="bg" x1="0" x2="1" y1="0" y2="1">
      <stop offset="0" stop-color="#0A4F7F" />
      <stop offset="1" stop-color="#2E7FBD" />
    </linearGradient>
  </defs>
  <rect width="1200" height="630" fill="url(#bg)" />
  <rect x="90" y="80" width="1020" height="470" rx="28" fill="#ffffff" opacity="0.1" />
  <rect x="180" y="150" width="840" height="340" rx="20" fill="#ffffff" opacity="0.95" />
  <circle cx="320" cy="320" r="95" fill="#e8f1f8" />
  <path d="M320 225a95 95 0 0 1 0 190 95 95 0 0 1 0-190z" fill="#0A4F7F" />
  <path d="M320 225a95 95 0 0 1 82 47L320 320z" fill="#33B690" />
  <path d="M320 320 82 367a95 95 0 0 1 0-142z" fill="#2E7FBD" />
  <rect x="470" y="210" width="480" height="28" rx="14" fill="#0A4F7F" opacity="0.15" />
  <rect x="470" y="210" width="360" height="28" rx="14" fill="#0A4F7F" />
  <rect x="470" y="260" width="480" height="28" rx="14" fill="#33B690" opacity="0.15" />
  <rect x="470" y="260" width="290" height="28" rx="14" fill="#33B690" />
  <rect x="470" y="310" width="480" height="28" rx="14" fill="#2E7FBD" opacity="0.15" />
  <rect x="470" y="310" width="410" height="28" rx="14" fill="#2E7FBD" />
  <rect x="470" y="360" width="480" height="28" rx="14" fill="#94a3b8" opacity="0.2" />
  <rect x="470" y="360" width="220" height="28" rx="14" fill="#94a3b8" />
  <text x="160" y="575" fill="#ffffff" font-size="44" font-family="Arial, sans-serif" font-weight="700">Plan and track budgets</text>
</svg>
