<svg xmlns="http://www.w3.org/2000/svg" width="1200" height="auto" viewBox="0 0 1200 630" role="img" aria-labelledby="title desc">
  <title id="title">Liabilities guide thumbnail</title>
  <desc id="desc">Illustration for tracking loans and repayment obligations.</desc>
  <defs>
    <linearGradient id="bg" x1="0" x2="1" y1="0" y2="1">
      <stop offset="0" stop-color="#0A4F7F" />
      <stop offset="1" stop-color="#2E7FBD" />
    </linearGradient>
  </defs>
  <rect width="1200" height="630" fill="url(#bg)" />
  <rect x="90" y="80" width="1020" height="470" rx="28" fill="#ffffff" opacity="0.1" />
  <rect x="220" y="150" width="760" height="340" rx="20" fill="#ffffff" opacity="0.95" />
  <rect x="280" y="430" width="40" height="20" rx="6" fill="#64748b" />
  <rect x="560" y="430" width="40" height="20" rx="6" fill="#64748b" />
  <rect x="300" y="220" width="520" height="18" rx="9" fill="#cbd5e1" />
  <path d="M300 238 L820 238" stroke="#0A4F7F" stroke-width="10" stroke-linecap="round" />
  <circle cx="300" cy="238" r="28" fill="#0A4F7F" />
  <circle cx="820" cy="238" r="28" fill="#33B690" />
  <rect x="340" y="290" width="440" height="110" rx="16" fill="#e8f1f8" />
  <rect x="375" y="325" width="180" height="20" rx="10" fill="#0A4F7F" />
  <rect x="375" y="360" width="320" height="14" rx="7" fill="#94a3b8" />
  <rect x="620" y="325" width="120" height="36" rx="10" fill="#2E7FBD" />
  <text x="160" y="575" fill="#ffffff" font-size="44" font-family="Arial, sans-serif" font-weight="700">Track liabilities and debt</text>
</svg>
