<svg xmlns="http://www.w3.org/2000/svg" width="1200" height="auto" viewBox="0 0 1200 630" role="img" aria-labelledby="title desc">
  <title id="title">Docker Compose installation thumbnail</title>
  <desc id="desc">Illustration for deploying Pledger.io with Docker Compose.</desc>
  <defs>
    <linearGradient id="bg" x1="0" x2="1" y1="0" y2="1">
      <stop offset="0" stop-color="#0A4F7F" />
      <stop offset="1" stop-color="#2E7FBD" />
    </linearGradient>
  </defs>
  <rect width="1200" height="630" fill="url(#bg)" />
  <rect x="90" y="80" width="1020" height="470" rx="28" fill="#ffffff" opacity="0.1" />
  <rect x="150" y="170" width="260" height="220" rx="18" fill="#ffffff" opacity="0.95" />
  <rect x="470" y="170" width="260" height="220" rx="18" fill="#ffffff" opacity="0.95" />
  <rect x="790" y="170" width="260" height="220" rx="18" fill="#ffffff" opacity="0.95" />
  <rect x="185" y="210" width="190" height="24" rx="12" fill="#0A4F7F" />
  <rect x="185" y="250" width="150" height="14" rx="7" fill="#94a3b8" />
  <rect x="185" y="275" width="170" height="14" rx="7" fill="#94a3b8" />
  <rect x="185" y="320" width="110" height="36" rx="10" fill="#33B690" />
  <rect x="505" y="210" width="190" height="24" rx="12" fill="#2E7FBD" />
  <rect x="505" y="250" width="150" height="14" rx="7" fill="#94a3b8" />
  <rect x="505" y="275" width="170" height="14" rx="7" fill="#94a3b8" />
  <rect x="505" y="320" width="110" height="36" rx="10" fill="#0A4F7F" />
  <rect x="825" y="210" width="190" height="24" rx="12" fill="#33B690" />
  <rect x="825" y="250" width="150" height="14" rx="7" fill="#94a3b8" />
  <rect x="825" y="275" width="170" height="14" rx="7" fill="#94a3b8" />
  <rect x="825" y="320" width="110" height="36" rx="10" fill="#2E7FBD" />
  <path d="M410 280h60M730 280h60" stroke="#ffffff" stroke-width="8" stroke-linecap="round" opacity="0.9" />
  <polygon points="470,280 450,268 450,292" fill="#ffffff" opacity="0.9" />
  <polygon points="790,280 770,268 770,292" fill="#ffffff" opacity="0.9" />
  <text x="160" y="575" fill="#ffffff" font-size="44" font-family="Arial, sans-serif" font-weight="700">Deploy with Docker Compose</text>
</svg>
