<svg xmlns="http://www.w3.org/2000/svg" width="1200" height="auto" viewBox="0 0 1200 630" role="img" aria-labelledby="title desc">
  <title id="title">Configuration thumbnail</title>
  <desc id="desc">Illustration for configuring Pledger.io environment settings.</desc>
  <defs>
    <linearGradient id="bg" x1="0" x2="1" y1="0" y2="1">
      <stop offset="0" stop-color="#0A4F7F" />
      <stop offset="1" stop-color="#2E7FBD" />
    </linearGradient>
  </defs>
  <rect width="1200" height="630" fill="url(#bg)" />
  <rect x="90" y="80" width="1020" height="470" rx="28" fill="#ffffff" opacity="0.1" />
  <rect x="180" y="150" width="840" height="340" rx="20" fill="#ffffff" opacity="0.95" />
  <circle cx="290" cy="320" r="70" fill="#e8f1f8" />
  <circle cx="290" cy="320" r="42" fill="#0A4F7F" />
  <rect x="270" y="300" width="40" height="40" rx="6" fill="#33B690" transform="rotate(45 290 320)" />
  <rect x="420" y="210" width="520" height="28" rx="14" fill="#0A4F7F" opacity="0.15" />
  <rect x="420" y="210" width="340" height="28" rx="14" fill="#0A4F7F" />
  <rect x="420" y="270" width="520" height="28" rx="14" fill="#2E7FBD" opacity="0.15" />
  <rect x="420" y="270" width="260" height="28" rx="14" fill="#2E7FBD" />
  <rect x="420" y="330" width="520" height="28" rx="14" fill="#33B690" opacity="0.15" />
  <rect x="420" y="330" width="410" height="28" rx="14" fill="#33B690" />
  <rect x="420" y="390" width="520" height="28" rx="14" fill="#94a3b8" opacity="0.25" />
  <rect x="420" y="390" width="180" height="28" rx="14" fill="#94a3b8" />
  <text x="160" y="575" fill="#ffffff" font-size="44" font-family="Arial, sans-serif" font-weight="700">Configure your application</text>
</svg>
