<svg xmlns="http://www.w3.org/2000/svg" width="1200" height="auto" viewBox="0 0 1200 630" role="img" aria-labelledby="title desc">
  <title id="title">Docker installation thumbnail</title>
  <desc id="desc">Illustration for running Pledger.io with Docker.</desc>
  <defs>
    <linearGradient id="bg" x1="0" x2="1" y1="0" y2="1">
      <stop offset="0" stop-color="#0A4F7F" />
      <stop offset="1" stop-color="#2E7FBD" />
    </linearGradient>
  </defs>
  <rect width="1200" height="630" fill="url(#bg)" />
  <rect x="90" y="80" width="1020" height="470" rx="28" fill="#ffffff" opacity="0.1" />
  <rect x="180" y="150" width="520" height="320" rx="20" fill="#ffffff" opacity="0.95" />
  <rect x="230" y="200" width="90" height="70" rx="8" fill="#0A4F7F" />
  <rect x="340" y="200" width="90" height="70" rx="8" fill="#33B690" />
  <rect x="450" y="200" width="90" height="70" rx="8" fill="#2E7FBD" />
  <rect x="560" y="200" width="90" height="70" rx="8" fill="#0A4F7F" opacity="0.75" />
  <rect x="285" y="290" width="310" height="130" rx="14" fill="#e8f1f8" />
  <rect x="315" y="320" width="250" height="18" rx="9" fill="#0A4F7F" />
  <rect x="315" y="355" width="190" height="14" rx="7" fill="#94a3b8" />
  <rect x="315" y="380" width="210" height="14" rx="7" fill="#94a3b8" />
  <rect x="760" y="130" width="300" height="360" rx="18" fill="#0f2740" opacity="0.85" />
  <rect x="795" y="170" width="230" height="24" rx="12" fill="#33B690" />
  <rect x="795" y="220" width="180" height="16" rx="8" fill="#cbd5e1" />
  <rect x="795" y="252" width="200" height="16" rx="8" fill="#cbd5e1" />
  <rect x="795" y="300" width="140" height="42" rx="10" fill="#0A4F7F" />
  <text x="820" y="328" fill="#ffffff" font-size="18" font-family="Arial, sans-serif">docker run</text>
  <text x="160" y="575" fill="#ffffff" font-size="48" font-family="Arial, sans-serif" font-weight="700">Run Pledger.io with Docker</text>
</svg>
