<svg xmlns="http://www.w3.org/2000/svg" width="1200" height="auto" viewBox="0 0 1200 630" role="img" aria-labelledby="title desc">
  <title id="title">Kubernetes installation thumbnail</title>
  <desc id="desc">Illustration for deploying Pledger.io on Kubernetes.</desc>
  <defs>
    <linearGradient id="bg" x1="0" x2="1" y1="0" y2="1">
      <stop offset="0" stop-color="#0A4F7F" />
      <stop offset="1" stop-color="#2E7FBD" />
    </linearGradient>
  </defs>
  <rect width="1200" height="630" fill="url(#bg)" />
  <rect x="90" y="80" width="1020" height="470" rx="28" fill="#ffffff" opacity="0.1" />
  <polygon points="600,130 760,220 760,400 600,490 440,400 440,220" fill="#ffffff" opacity="0.18" />
  <polygon points="600,170 710,240 710,380 600,450 490,380 490,240" fill="#ffffff" opacity="0.95" />
  <circle cx="600" cy="310" r="58" fill="#0A4F7F" />
  <circle cx="600" cy="310" r="34" fill="#33B690" />
  <rect x="250" y="220" width="120" height="90" rx="14" fill="#0f2740" opacity="0.85" />
  <rect x="830" y="220" width="120" height="90" rx="14" fill="#0f2740" opacity="0.85" />
  <rect x="250" y="360" width="120" height="90" rx="14" fill="#0f2740" opacity="0.85" />
  <rect x="830" y="360" width="120" height="90" rx="14" fill="#0f2740" opacity="0.85" />
  <path d="M370 265h120M710 265h120M370 405h120M710 405h120" stroke="#ffffff" stroke-width="6" stroke-linecap="round" opacity="0.75" />
  <text x="160" y="575" fill="#ffffff" font-size="44" font-family="Arial, sans-serif" font-weight="700">Deploy on Kubernetes</text>
</svg>
