<svg xmlns="http://www.w3.org/2000/svg" width="1200" height="auto" viewBox="0 0 1200 630" role="img" aria-labelledby="title desc">
  <title id="title">Windows installation thumbnail</title>
  <desc id="desc">Illustration for installing the Pledger.io Windows application.</desc>
  <defs>
    <linearGradient id="bg" x1="0" x2="1" y1="0" y2="1">
      <stop offset="0" stop-color="#0A4F7F" />
      <stop offset="1" stop-color="#2E7FBD" />
    </linearGradient>
  </defs>
  <rect width="1200" height="630" fill="url(#bg)" />
  <rect x="90" y="80" width="1020" height="470" rx="28" fill="#ffffff" opacity="0.1" />
  <rect x="220" y="120" width="760" height="390" rx="16" fill="#ffffff" opacity="0.95" />
  <rect x="220" y="120" width="760" height="48" rx="16" fill="#0A4F7F" />
  <rect x="220" y="152" width="760" height="16" fill="#0A4F7F" />
  <circle cx="252" cy="144" r="8" fill="#fca5a5" />
  <circle cx="278" cy="144" r="8" fill="#fde047" />
  <circle cx="304" cy="144" r="8" fill="#86efac" />
  <rect x="280" y="210" width="300" height="220" rx="14" fill="#e8f1f8" />
  <rect x="320" y="250" width="220" height="20" rx="10" fill="#0A4F7F" />
  <rect x="320" y="290" width="180" height="14" rx="7" fill="#94a3b8" />
  <rect x="320" y="315" width="200" height="14" rx="7" fill="#94a3b8" />
  <rect x="320" y="360" width="130" height="40" rx="10" fill="#33B690" />
  <rect x="630" y="210" width="280" height="220" rx="14" fill="#0f2740" opacity="0.88" />
  <rect x="665" y="250" width="210" height="18" rx="9" fill="#2E7FBD" />
  <rect x="665" y="285" width="170" height="14" rx="7" fill="#cbd5e1" />
  <rect x="665" y="310" width="190" height="14" rx="7" fill="#cbd5e1" />
  <rect x="665" y="355" width="120" height="38" rx="10" fill="#0A4F7F" />
  <text x="160" y="575" fill="#ffffff" font-size="44" font-family="Arial, sans-serif" font-weight="700">Install on Windows</text>
</svg>
