<?xml version="1.0" encoding="UTF-8"?>
<svg width="30" height="30" viewBox="0 0 512 512" xmlns="http://www.w3.org/2000/svg" role="img" aria-label="Pledger logo">
  <polygon points="256,36 16,176 496,176" fill="#23252B"/>
  <rect x="48" y="176" width="416" height="16" fill="#23252B"/>

  <path d="M64 208h80v16c0 8.8-7.2 16-16 16h-2c-9.2 53.4-13.9 106.5-13.9 160H64c0-53.7 4.8-106.7 14.1-160H80c-8.8 0-16-7.2-16-16z" fill="#23252B"/>
  <path d="M368 208h80v16c0 8.8-7.2 16-16 16h-1.9c9.3 53.4 13.9 106.4 13.9 160H368c0-53.7 4.8-106.8 14.1-160H384c-8.8 0-16-7.2-16-16z" fill="#23252B"/>

  <rect x="144" y="224" width="224" height="176" fill="#9FBD5B"/>
  <text x="256" y="346" text-anchor="middle" fill="#FFFFFF" font-size="204" font-family="Arial, Helvetica, sans-serif" font-weight="700">$</text>

  <rect x="48" y="416" width="416" height="48" fill="#23252B"/>
</svg>
