<svg xmlns="http://www.w3.org/2000/svg" width="1200" height="auto" viewBox="0 0 1200 630" role="img" aria-labelledby="title desc">
  <title id="title">Categorizing Transactions Tutorial Thumbnail</title>
  <desc id="desc">Illustration for categorizing transactions with categories and tags.</desc>
  <defs>
    <linearGradient id="bg" x1="0" x2="1" y1="0" y2="1">
      <stop offset="0" stop-color="#1f2937" />
      <stop offset="1" stop-color="#7c3aed" />
    </linearGradient>
  </defs>
  <rect width="1200" height="630" fill="url(#bg)" />
  <rect x="100" y="90" width="1000" height="450" rx="28" fill="#ffffff" opacity="0.1" />
  <rect x="145" y="145" width="910" height="340" rx="18" fill="#f8fafc" />
  <rect x="185" y="190" width="310" height="28" rx="14" fill="#8b5cf6" />
  <rect x="185" y="238" width="520" height="18" rx="9" fill="#cbd5e1" />
  <rect x="185" y="270" width="480" height="18" rx="9" fill="#cbd5e1" />
  <rect x="185" y="302" width="540" height="18" rx="9" fill="#cbd5e1" />
  <rect x="185" y="352" width="180" height="34" rx="17" fill="#16a34a" />
  <text x="222" y="374" fill="#ffffff" font-size="16" font-family="Arial, sans-serif">Category</text>
  <rect x="380" y="352" width="130" height="34" rx="17" fill="#2563eb" />
  <text x="423" y="374" fill="#ffffff" font-size="16" font-family="Arial, sans-serif">Tag</text>
  <rect x="524" y="352" width="130" height="34" rx="17" fill="#db2777" />
  <text x="557" y="374" fill="#ffffff" font-size="16" font-family="Arial, sans-serif">Budget</text>
  <g transform="translate(770 190)">
    <circle cx="125" cy="90" r="76" fill="#ede9fe" />
    <path d="M84 80l80-36v72z" fill="#7c3aed" />
    <circle cx="96" cy="108" r="18" fill="#ffffff" />
    <circle cx="138" cy="88" r="16" fill="#ffffff" />
    <circle cx="158" cy="128" r="14" fill="#ffffff" />
  </g>
  <text x="145" y="575" fill="#ffffff" font-size="46" font-family="Arial, sans-serif" font-weight="700">Categorize with budgets, categories, and tags</text>
</svg>
