<svg xmlns="http://www.w3.org/2000/svg" width="1200" height="auto" viewBox="0 0 1200 630" role="img" aria-labelledby="title desc">
  <title id="title">Create User Tutorial Thumbnail</title>
  <desc id="desc">Illustration for creating your first user account and logging in.</desc>
  <defs>
    <linearGradient id="bg" x1="0" x2="1" y1="0" y2="1">
      <stop offset="0" stop-color="#0f172a" />
      <stop offset="1" stop-color="#1d4ed8" />
    </linearGradient>
  </defs>
  <rect width="1200" height="630" fill="url(#bg)" />
  <rect x="100" y="90" width="1000" height="450" rx="28" fill="#ffffff" opacity="0.1" />
  <rect x="160" y="145" width="520" height="340" rx="18" fill="#ffffff" opacity="0.95" />
  <circle cx="420" cy="240" r="50" fill="#2563eb" />
  <path d="M420 300c-52 0-95 34-95 76h190c0-42-43-76-95-76z" fill="#93c5fd" />
  <rect x="730" y="170" width="300" height="290" rx="16" fill="#111827" opacity="0.82" />
  <rect x="760" y="205" width="240" height="22" rx="11" fill="#60a5fa" />
  <rect x="760" y="247" width="200" height="18" rx="9" fill="#d1d5db" />
  <rect x="760" y="279" width="220" height="18" rx="9" fill="#d1d5db" />
  <rect x="760" y="334" width="160" height="40" rx="10" fill="#2563eb" />
  <text x="780" y="361" fill="#ffffff" font-size="19" font-family="Arial, sans-serif">Register</text>
  <text x="160" y="575" fill="#ffffff" font-size="48" font-family="Arial, sans-serif" font-weight="700">Create your user and sign in</text>
</svg>
