<svg xmlns="http://www.w3.org/2000/svg" width="1200" height="auto" viewBox="0 0 1200 630" role="img" aria-labelledby="title desc">
  <title id="title">First Account Tutorial Thumbnail</title>
  <desc id="desc">Illustration for creating accounts and recording first transactions.</desc>
  <defs>
    <linearGradient id="bg" x1="0" x2="1" y1="0" y2="1">
      <stop offset="0" stop-color="#111827" />
      <stop offset="1" stop-color="#0f766e" />
    </linearGradient>
  </defs>
  <rect width="1200" height="630" fill="url(#bg)" />
  <rect x="100" y="90" width="1000" height="450" rx="28" fill="#ffffff" opacity="0.09" />
  <rect x="150" y="140" width="470" height="350" rx="18" fill="#f8fafc" />
  <rect x="180" y="180" width="220" height="28" rx="14" fill="#14b8a6" />
  <rect x="180" y="232" width="390" height="20" rx="10" fill="#cbd5e1" />
  <rect x="180" y="268" width="340" height="20" rx="10" fill="#cbd5e1" />
  <rect x="180" y="304" width="370" height="20" rx="10" fill="#cbd5e1" />
  <rect x="180" y="362" width="180" height="44" rx="12" fill="#0ea5e9" />
  <text x="217" y="391" fill="#ffffff" font-size="18" font-family="Arial, sans-serif">Add account</text>
  <rect x="680" y="150" width="370" height="330" rx="18" fill="#0b1220" opacity="0.86" />
  <rect x="720" y="195" width="290" height="24" rx="12" fill="#34d399" />
  <rect x="720" y="240" width="120" height="120" rx="16" fill="#1e293b" />
  <text x="748" y="314" fill="#93c5fd" font-size="56" font-family="Arial, sans-serif">$</text>
  <rect x="860" y="240" width="150" height="18" rx="9" fill="#94a3b8" />
  <rect x="860" y="270" width="140" height="18" rx="9" fill="#94a3b8" />
  <rect x="860" y="300" width="130" height="18" rx="9" fill="#94a3b8" />
  <rect x="860" y="355" width="160" height="40" rx="10" fill="#14b8a6" />
  <text x="889" y="381" fill="#ffffff" font-size="18" font-family="Arial, sans-serif">Save</text>
  <text x="150" y="575" fill="#ffffff" font-size="46" font-family="Arial, sans-serif" font-weight="700">Create accounts and transactions</text>
</svg>
