<svg xmlns="http://www.w3.org/2000/svg" width="1200" height="auto" viewBox="0 0 1200 630" role="img" aria-labelledby="title desc">
  <title id="title">Budgets concept thumbnail</title>
  <desc id="desc">Illustration for income planning and expense allocation.</desc>
  <defs>
    <linearGradient id="bg" x1="0" x2="1" y1="0" y2="1">
      <stop offset="0" stop-color="#0A4F7F" />
      <stop offset="1" stop-color="#2E7FBD" />
    </linearGradient>
  </defs>
  <rect width="1200" height="630" fill="url(#bg)" />
  <rect x="90" y="80" width="1020" height="470" rx="28" fill="#ffffff" opacity="0.1" />
  <rect x="180" y="150" width="840" height="340" rx="20" fill="#ffffff" opacity="0.95" />
  <rect x="240" y="210" width="720" height="36" rx="18" fill="#33B690" opacity="0.2" />
  <rect x="240" y="210" width="520" height="36" rx="18" fill="#33B690" />
  <text x="255" y="235" fill="#0f2740" font-size="18" font-family="Arial, sans-serif" font-weight="700">Income</text>
  <rect x="240" y="270" width="720" height="36" rx="18" fill="#0A4F7F" opacity="0.15" />
  <rect x="240" y="270" width="480" height="36" rx="18" fill="#0A4F7F" />
  <text x="255" y="295" fill="#0f2740" font-size="18" font-family="Arial, sans-serif" font-weight="700">Fixed expenses</text>
  <rect x="240" y="330" width="720" height="36" rx="18" fill="#2E7FBD" opacity="0.15" />
  <rect x="240" y="330" width="360" height="36" rx="18" fill="#2E7FBD" />
  <text x="255" y="355" fill="#0f2740" font-size="18" font-family="Arial, sans-serif" font-weight="700">Variable expenses</text>
  <rect x="240" y="390" width="720" height="36" rx="18" fill="#94a3b8" opacity="0.2" />
  <rect x="240" y="390" width="180" height="36" rx="18" fill="#94a3b8" />
  <text x="255" y="415" fill="#0f2740" font-size="18" font-family="Arial, sans-serif" font-weight="700">Savings</text>
  <text x="160" y="575" fill="#ffffff" font-size="44" font-family="Arial, sans-serif" font-weight="700">Budgets in finance</text>
</svg>
