<svg xmlns="http://www.w3.org/2000/svg" width="1200" height="auto" viewBox="0 0 1200 630" role="img" aria-labelledby="title desc">
  <title id="title">Contracts concept thumbnail</title>
  <desc id="desc">Illustration for financial agreements between parties.</desc>
  <defs>
    <linearGradient id="bg" x1="0" x2="1" y1="0" y2="1">
      <stop offset="0" stop-color="#0A4F7F" />
      <stop offset="1" stop-color="#2E7FBD" />
    </linearGradient>
  </defs>
  <rect width="1200" height="630" fill="url(#bg)" />
  <rect x="90" y="80" width="1020" height="470" rx="28" fill="#ffffff" opacity="0.1" />
  <rect x="280" y="160" width="640" height="360" rx="20" fill="#ffffff" opacity="0.95" />
  <rect x="330" y="210" width="540" height="28" rx="14" fill="#0A4F7F" />
  <rect x="330" y="260" width="480" height="14" rx="7" fill="#94a3b8" />
  <rect x="330" y="285" width="500" height="14" rx="7" fill="#94a3b8" />
  <rect x="330" y="310" width="420" height="14" rx="7" fill="#94a3b8" />
  <rect x="330" y="360" width="220" height="50" rx="12" fill="#e8f1f8" />
  <rect x="570" y="360" width="220" height="50" rx="12" fill="#e8f1f8" />
  <circle cx="420" cy="385" r="16" fill="#0A4F7F" />
  <circle cx="640" cy="385" r="16" fill="#33B690" />
  <path d="M436 385h188" stroke="#2E7FBD" stroke-width="6" stroke-linecap="round" stroke-dasharray="10 8" />
  <rect x="330" y="440" width="160" height="40" rx="10" fill="#2E7FBD" />
  <text x="160" y="575" fill="#ffffff" font-size="44" font-family="Arial, sans-serif" font-weight="700">Contracts in finance</text>
</svg>
