<svg xmlns="http://www.w3.org/2000/svg" width="1200" height="auto" viewBox="0 0 1200 630" role="img" aria-labelledby="title desc">
  <title id="title">Recurring transactions concept thumbnail</title>
  <desc id="desc">Illustration for scheduled and repeating financial transactions.</desc>
  <defs>
    <linearGradient id="bg" x1="0" x2="1" y1="0" y2="1">
      <stop offset="0" stop-color="#0A4F7F" />
      <stop offset="1" stop-color="#2E7FBD" />
    </linearGradient>
  </defs>
  <rect width="1200" height="630" fill="url(#bg)" />
  <rect x="90" y="80" width="1020" height="470" rx="28" fill="#ffffff" opacity="0.1" />
  <rect x="220" y="160" width="760" height="340" rx="20" fill="#ffffff" opacity="0.95" />
  <rect x="280" y="220" width="640" height="220" rx="16" fill="#e8f1f8" />
  <rect x="320" y="260" width="120" height="140" rx="12" fill="#0A4F7F" opacity="0.15" />
  <rect x="460" y="260" width="120" height="140" rx="12" fill="#0A4F7F" opacity="0.15" />
  <rect x="600" y="260" width="120" height="140" rx="12" fill="#33B690" opacity="0.25" />
  <rect x="740" y="260" width="120" height="140" rx="12" fill="#0A4F7F" opacity="0.15" />
  <rect x="330" y="300" width="100" height="16" rx="8" fill="#0A4F7F" />
  <rect x="470" y="300" width="100" height="16" rx="8" fill="#0A4F7F" />
  <rect x="610" y="300" width="100" height="16" rx="8" fill="#33B690" />
  <rect x="750" y="300" width="100" height="16" rx="8" fill="#0A4F7F" />
  <path d="M380 360a40 40 0 1 1 0 0" fill="none" stroke="#2E7FBD" stroke-width="8" stroke-linecap="round" />
  <polygon points="420,360 408,348 408,372" fill="#2E7FBD" />
  <text x="160" y="575" fill="#ffffff" font-size="40" font-family="Arial, sans-serif" font-weight="700">Recurring transactions</text>
</svg>
