<svg xmlns="http://www.w3.org/2000/svg" width="1200" height="auto" viewBox="0 0 1200 630" role="img" aria-labelledby="title desc">
  <title id="title">Transactions concept thumbnail</title>
  <desc id="desc">Illustration for money moving between accounts.</desc>
  <defs>
    <linearGradient id="bg" x1="0" x2="1" y1="0" y2="1">
      <stop offset="0" stop-color="#0A4F7F" />
      <stop offset="1" stop-color="#2E7FBD" />
    </linearGradient>
  </defs>
  <rect width="1200" height="630" fill="url(#bg)" />
  <rect x="90" y="80" width="1020" height="470" rx="28" fill="#ffffff" opacity="0.1" />
  <rect x="200" y="210" width="280" height="220" rx="18" fill="#ffffff" opacity="0.95" />
  <rect x="720" y="210" width="280" height="220" rx="18" fill="#ffffff" opacity="0.95" />
  <rect x="235" y="255" width="210" height="24" rx="12" fill="#0A4F7F" />
  <rect x="235" y="300" width="160" height="14" rx="7" fill="#94a3b8" />
  <rect x="235" y="325" width="190" height="14" rx="7" fill="#94a3b8" />
  <rect x="755" y="255" width="210" height="24" rx="12" fill="#33B690" />
  <rect x="755" y="300" width="160" height="14" rx="7" fill="#94a3b8" />
  <rect x="755" y="325" width="190" height="14" rx="7" fill="#94a3b8" />
  <path d="M500 320h220" stroke="#ffffff" stroke-width="10" stroke-linecap="round" />
  <polygon points="720,320 700,308 700,332" fill="#ffffff" />
  <circle cx="610" cy="320" r="34" fill="#2E7FBD" />
  <text x="598" y="329" fill="#ffffff" font-size="22" font-family="Arial, sans-serif" font-weight="700"> </text>
  <text x="160" y="575" fill="#ffffff" font-size="44" font-family="Arial, sans-serif" font-weight="700">Transactions in finance</text>
</svg>
